<?xml version="1.0" standalone="no"?>
<!DOCTYPE svg PUBLIC "-//W3C//DTD SVG 20010904//EN"
 "http://www.w3.org/TR/2001/REC-SVG-20010904/DTD/svg10.dtd">
<svg version="1.0" xmlns="http://www.w3.org/2000/svg"
 width="686.000000pt" height="686.000000pt" viewBox="0 0 686.000000 686.000000"
 preserveAspectRatio="xMidYMid meet">
<metadata>
Created by potrace 1.11, written by Peter Selinger 2001-2013
</metadata>
<g transform="translate(0.000000,686.000000) scale(0.100000,-0.100000)"
fill="#000000" stroke="none">
<path d="M3215 6854 c-305 -30 -423 -48 -625 -99 -1218 -307 -2178 -1266
-2485 -2485 -74 -293 -100 -512 -100 -840 0 -328 26 -547 100 -840 307 -1219
1266 -2178 2485 -2485 294 -74 512 -100 840 -100 334 1 542 25 840 100 1219
307 2178 1266 2485 2485 74 293 100 512 100 840 0 328 -26 547 -100 840 -307
1219 -1269 2181 -2485 2485 -281 70 -479 95 -785 100 -126 2 -248 1 -270 -1z
m398 -1239 c114 -30 228 -102 290 -184 35 -46 1398 -2830 1445 -2951 34 -88
35 -200 2 -285 -28 -72 -125 -174 -207 -218 -188 -100 -422 -55 -538 103 -20
28 -94 178 -164 333 l-126 282 -840 3 -840 2 -90 -197 c-164 -365 -185 -404
-239 -458 -131 -131 -322 -158 -503 -71 -191 92 -286 272 -239 453 9 39 263
571 662 1390 839 1723 774 1595 844 1664 63 61 158 114 243 135 73 17 231 17
300 -1z"/>
<path d="M3218 3998 l-257 -573 260 -3 c143 -1 374 -1 514 0 l253 3 -247 550
c-135 303 -251 560 -256 573 -9 20 -44 -52 -267 -550z"/>
</g>
</svg>
