<?xml version="1.0" encoding="UTF-8" standalone="no"?><!DOCTYPE svg PUBLIC "-//W3C//DTD SVG 1.1//EN" "http://www.w3.org/Graphics/SVG/1.1/DTD/svg11.dtd"><svg width="100%" height="100%" viewBox="0 0 353 33" version="1.1" xmlns="http://www.w3.org/2000/svg" xmlns:xlink="http://www.w3.org/1999/xlink" xml:space="preserve" xmlns:serif="http://www.serif.com/" style="fill-rule:evenodd;clip-rule:evenodd;stroke-linejoin:round;stroke-miterlimit:2;"><path d="M341.832,24.763c-1.009,0 -1.986,-0.134 -2.915,-0.385c-1.975,3.148 -5.476,5.241 -9.467,5.241c-0.836,0 -1.651,-0.093 -2.436,-0.267c-1.954,1.679 -4.496,2.695 -7.275,2.695c-4.883,0 -9.033,-3.135 -10.551,-7.501c-1.003,0.451 -2.116,0.703 -3.287,0.703c-2.315,0 -4.401,-0.983 -5.864,-2.553c-0.461,0.082 -0.935,0.125 -1.419,0.125c-1.592,0 -3.076,-0.464 -4.323,-1.265c-1.345,4.657 -5.639,8.063 -10.73,8.063c-4.019,0 -7.541,-2.123 -9.508,-5.309c-1.98,1.791 -4.606,2.881 -7.486,2.881c-1.598,0 -3.117,-0.336 -4.491,-0.94c-1.615,0.908 -3.478,1.426 -5.463,1.426c-0.837,0 -1.652,-0.093 -2.436,-0.268c-1.954,1.68 -4.496,2.696 -7.275,2.696c-4.883,0 -9.034,-3.135 -10.551,-7.502c-1.003,0.452 -2.116,0.704 -3.288,0.704c-2.315,0 -4.401,-0.983 -5.863,-2.554c-0.461,0.083 -0.936,0.126 -1.42,0.126c-1.592,0 -3.075,-0.464 -4.322,-1.265c-1.346,4.657 -5.64,8.063 -10.73,8.063c-4.019,0 -7.541,-2.123 -9.509,-5.309c-1.98,1.79 -4.606,2.881 -7.486,2.881c-3.163,0 -6.018,-1.315 -8.05,-3.428c-1.061,0.334 -2.189,0.515 -3.36,0.515c-1.009,0 -1.986,-0.135 -2.916,-0.386c-1.975,3.148 -5.476,5.241 -9.466,5.241c-0.837,0 -1.652,-0.093 -2.436,-0.267c-1.954,1.68 -4.496,2.695 -7.275,2.695c-4.883,0 -9.034,-3.135 -10.551,-7.501c-1.003,0.452 -2.116,0.703 -3.288,0.703c-2.315,0 -4.401,-0.982 -5.863,-2.553c-0.461,0.082 -0.935,0.125 -1.42,0.125c-1.592,0 -3.075,-0.464 -4.322,-1.264c-1.346,4.656 -5.64,8.062 -10.73,8.062c-4.019,0 -7.542,-2.123 -9.509,-5.308c-1.98,1.79 -4.606,2.88 -7.486,2.88c-5.179,0 -9.534,-3.525 -10.797,-8.307c-1.886,3.5 -5.584,5.88 -9.839,5.88c-1.009,0 -1.986,-0.135 -2.915,-0.386c-1.975,3.148 -5.476,5.241 -9.467,5.241c-0.836,0 -1.651,-0.093 -2.436,-0.267c-1.954,1.68 -4.496,2.695 -7.275,2.695c-4.883,0 -9.034,-3.135 -10.551,-7.501c-1.003,0.452 -2.116,0.703 -3.287,0.703c-2.315,0 -4.401,-0.982 -5.864,-2.553c-0.461,0.082 -0.935,0.125 -1.419,0.125c-1.592,0 -3.076,-0.464 -4.323,-1.264c-1.345,4.656 -5.639,8.062 -10.73,8.062c-4.019,0 -7.541,-2.123 -9.508,-5.308c-1.981,1.79 -4.606,2.88 -7.486,2.88c-6.168,0 -11.168,-5 -11.168,-11.167c0,-6.168 5,-11.168 11.168,-11.168c4.019,0 7.541,2.123 9.508,5.308c1.981,-1.79 4.606,-2.88 7.486,-2.88c3.201,0 6.087,1.346 8.123,3.503c1.387,-2.385 3.971,-3.989 6.93,-3.989c2.315,0 4.401,0.983 5.863,2.553c0.461,-0.082 0.935,-0.125 1.42,-0.125c2.651,0 5.001,1.288 6.459,3.271c1.968,-1.733 4.55,-2.786 7.379,-2.786c0.837,0 1.652,0.093 2.436,0.268c1.955,-1.68 4.496,-2.695 7.275,-2.695c1.009,0 1.987,0.134 2.916,0.385c1.975,-3.148 5.476,-5.241 9.466,-5.241c5.179,0 9.534,3.526 10.798,8.308c1.885,-3.501 5.584,-5.88 9.838,-5.88c4.019,0 7.542,2.123 9.509,5.308c1.98,-1.79 4.606,-2.88 7.486,-2.88c3.2,0 6.086,1.346 8.122,3.504c1.388,-2.386 3.972,-3.99 6.93,-3.99c2.315,0 4.401,0.983 5.864,2.553c0.461,-0.082 0.935,-0.125 1.419,-0.125c2.651,0 5.001,1.288 6.46,3.271c1.967,-1.733 4.55,-2.786 7.379,-2.786c0.837,0 1.652,0.093 2.436,0.268c1.954,-1.68 4.496,-2.695 7.275,-2.695c1.009,0 1.986,0.134 2.916,0.385c1.975,-3.148 5.475,-5.241 9.466,-5.241c3.163,0 6.018,1.315 8.05,3.428c1.061,-0.334 2.189,-0.515 3.36,-0.515c4.019,0 7.542,2.123 9.509,5.309c1.98,-1.79 4.606,-2.881 7.486,-2.881c3.2,0 6.086,1.347 8.122,3.504c1.388,-2.385 3.972,-3.989 6.93,-3.989c2.315,0 4.401,0.982 5.864,2.553c0.46,-0.083 0.935,-0.126 1.419,-0.126c2.651,0 5.001,1.288 6.46,3.272c1.967,-1.734 4.55,-2.786 7.379,-2.786c0.837,0 1.652,0.093 2.436,0.267c1.954,-1.68 4.496,-2.695 7.275,-2.695c1.009,0 1.986,0.135 2.916,0.385c1.975,-3.147 5.475,-5.24 9.466,-5.24c4.896,0 9.057,3.151 10.564,7.537c1.242,-0.477 2.592,-0.74 4.002,-0.74c3.201,0 6.087,1.347 8.123,3.504c1.387,-2.385 3.971,-3.989 6.93,-3.989c2.315,0 4.401,0.983 5.863,2.553c0.461,-0.082 0.935,-0.125 1.42,-0.125c2.651,0 5.001,1.288 6.459,3.271c1.968,-1.733 4.55,-2.786 7.379,-2.786c0.837,0 1.652,0.093 2.436,0.267c1.955,-1.679 4.496,-2.695 7.275,-2.695c1.009,0 1.986,0.135 2.916,0.386c1.975,-3.148 5.476,-5.241 9.466,-5.241c6.168,0 11.168,5 11.168,11.168c0,6.167 -5,11.167 -11.168,11.167Z" style="fill:#fff;"/></svg>