<?xml version="1.0" encoding="UTF-8" standalone="no"?><!DOCTYPE svg PUBLIC "-//W3C//DTD SVG 1.1//EN" "http://www.w3.org/Graphics/SVG/1.1/DTD/svg11.dtd"><svg width="100%" height="100%" viewBox="0 0 32 32" version="1.1" xmlns="http://www.w3.org/2000/svg" xmlns:xlink="http://www.w3.org/1999/xlink" xml:space="preserve" xmlns:serif="http://www.serif.com/" style="fill-rule:evenodd;clip-rule:evenodd;stroke-linejoin:round;stroke-miterlimit:2;"><path d="M31.198,10.67l-9.869,-9.869c-1.069,-1.068 -2.807,-1.068 -3.875,0l-15.402,15.402c-0.534,0.534 -0.801,1.236 -0.801,1.937c0,0.702 0.267,1.403 0.801,1.937l2.477,2.477l-2.719,2.718c-0.122,0.123 -0.183,0.282 -0.183,0.442c0,0.16 0.061,0.32 0.183,0.442c0.244,0.244 0.64,0.244 0.884,0l2.718,-2.719l1.133,1.133l-6.362,6.362c-0.122,0.122 -0.183,0.282 -0.183,0.442c0,0.16 0.061,0.32 0.183,0.442c0.244,0.244 0.64,0.244 0.884,0l6.362,-6.362l4.492,4.492c1.069,1.068 2.807,1.068 3.875,0l15.402,-15.401c0.517,-0.518 0.802,-1.206 0.802,-1.938c0,-0.731 -0.285,-1.419 -0.802,-1.937Zm-17.793,18.756c-0.22,-0.069 -0.426,-0.19 -0.6,-0.364l-9.869,-9.869c-0.389,-0.389 -0.516,-0.942 -0.383,-1.439l10.852,0l0,11.672Zm-2.26,-12.922l1.854,-1.854c0.244,-0.244 0.244,-0.639 0,-0.883c-0.244,-0.245 -0.64,-0.245 -0.884,0l-2.737,2.737l-1.821,0l5.65,-5.651c0.244,-0.244 0.244,-0.639 0,-0.884c-0.244,-0.244 -0.64,-0.244 -0.884,0l-6.534,6.535l-2.27,0l14.236,-14.236l0,12.746c0,0.821 -0.668,1.49 -1.49,1.49l-5.12,0Zm19.169,-2.843l-15.402,15.401c-0.079,0.08 -0.166,0.147 -0.257,0.205l0,-11.513l1.61,0c1.511,0 2.74,-1.229 2.74,-2.74l0,-1.611l7.164,0l-3.617,3.617c-0.122,0.122 -0.183,0.282 -0.183,0.442c0,0.16 0.061,0.32 0.183,0.442c0.244,0.244 0.64,0.244 0.884,0l4.5,-4.5c0,0 0.001,0 0.001,-0.001l2.583,0c-0.059,0.092 -0.127,0.179 -0.206,0.258Zm-11.309,-1.508l0,-10.852c0.497,-0.132 1.05,-0.005 1.44,0.384l9.869,9.869c0.17,0.171 0.294,0.376 0.365,0.599l-11.674,0Z" style="fill-rule:nonzero;"/><path d="M14.737,8.44c-0.116,-0.117 -0.278,-0.183 -0.442,-0.183c-0.165,0 -0.326,0.066 -0.442,0.183c-0.116,0.116 -0.183,0.277 -0.183,0.442c0,0.164 0.067,0.326 0.183,0.442c0.116,0.116 0.277,0.183 0.442,0.183c0.164,0 0.326,-0.067 0.442,-0.183c0.116,-0.116 0.183,-0.278 0.183,-0.442c0,-0.165 -0.067,-0.326 -0.183,-0.442Z" style="fill-rule:nonzero;"/><path d="M1.069,26.896c-0.116,-0.116 -0.277,-0.183 -0.442,-0.183c-0.164,0 -0.325,0.067 -0.441,0.183c-0.117,0.117 -0.184,0.278 -0.184,0.442c0,0.165 0.067,0.326 0.184,0.442c0.116,0.116 0.277,0.183 0.441,0.183c0.165,0 0.326,-0.067 0.442,-0.183c0.117,-0.116 0.184,-0.277 0.184,-0.442c0,-0.164 -0.067,-0.325 -0.184,-0.442Z" style="fill-rule:nonzero;"/><path d="M7.939,28.093c-0.245,-0.244 -0.64,-0.244 -0.884,0l-2.839,2.838c-0.122,0.122 -0.183,0.282 -0.183,0.442c0,0.16 0.061,0.32 0.183,0.442c0.244,0.244 0.64,0.244 0.884,0l2.839,-2.838c0.244,-0.244 0.244,-0.64 0,-0.884Z" style="fill-rule:nonzero;"/></svg>