<?xml version="1.0" encoding="UTF-8" standalone="no"?><!DOCTYPE svg PUBLIC "-//W3C//DTD SVG 1.1//EN" "http://www.w3.org/Graphics/SVG/1.1/DTD/svg11.dtd"><svg width="100%" height="100%" viewBox="0 0 32 32" version="1.1" xmlns="http://www.w3.org/2000/svg" xmlns:xlink="http://www.w3.org/1999/xlink" xml:space="preserve" xmlns:serif="http://www.serif.com/" style="fill-rule:evenodd;clip-rule:evenodd;stroke-linejoin:round;stroke-miterlimit:2;"><path id="_x32__26_" d="M21,17l-10,0c-0.552,0 -1,0.448 -1,1c0,0.552 0.448,1 1,1l10,0c0.552,0 1,-0.448 1,-1c0,-0.552 -0.448,-1 -1,-1Zm2,-6l-14,0c-0.552,0 -1,0.448 -1,1c0,0.552 0.448,1 1,1l14,0c0.552,0 1,-0.448 1,-1c0,-0.552 -0.448,-1 -1,-1Zm-7,-11c-8.836,0 -16,6.268 -16,14c0,4.419 2.345,8.353 6,10.919l0,7.081l7.009,-4.253c0.97,0.16 1.968,0.253 2.991,0.253c8.837,0 16,-6.268 16,-14c0,-7.732 -7.163,-14 -16,-14Zm0,26c-1.168,0 -2.296,-0.136 -3.38,-0.367l-4.708,2.83l0.063,-4.638c-3.609,-2.171 -5.975,-5.759 -5.975,-9.825c0,-6.627 6.268,-12 14,-12c7.732,0 14,5.373 14,12c0,6.627 -6.268,12 -14,12Z" style="fill-rule:nonzero;"/></svg>