<?xml version="1.0" encoding="UTF-8" standalone="no"?><!DOCTYPE svg PUBLIC "-//W3C//DTD SVG 1.1//EN" "http://www.w3.org/Graphics/SVG/1.1/DTD/svg11.dtd"><svg width="100%" height="100%" viewBox="0 0 40 33" version="1.1" xmlns="http://www.w3.org/2000/svg" xmlns:xlink="http://www.w3.org/1999/xlink" xml:space="preserve" xmlns:serif="http://www.serif.com/" style="fill-rule:evenodd;clip-rule:evenodd;stroke-linejoin:round;stroke-miterlimit:2;"><g><path d="M0,9.935l0,17.649c0,2.694 2.188,4.881 4.882,4.881l30.236,0c2.694,0 4.882,-2.187 4.882,-4.881l0,-17.649c0,-2.564 -2.082,-4.645 -4.645,-4.645l-6.498,0l-0.155,-0.678c-0.629,-2.718 -3.02,-4.612 -5.812,-4.612l-5.788,0c-2.784,0 -5.175,1.894 -5.812,4.612l-0.155,0.678l-6.49,0c-2.563,0 -4.645,2.09 -4.645,4.645Zm11.935,-2.645c0.465,0 0.865,-0.319 0.971,-0.776l0.335,-1.453c0.424,-1.804 2.008,-3.061 3.861,-3.061l5.788,0c1.853,0 3.437,1.257 3.861,3.061l0.335,1.453c0.106,0.449 0.506,0.776 0.971,0.776l7.29,0c1.461,0 2.645,1.183 2.645,2.645l0,17.649c0,1.592 -1.29,2.881 -2.882,2.881l-30.228,0c-1.592,0 -2.882,-1.289 -2.882,-2.881l0,-17.649c0,-1.462 1.184,-2.645 2.645,-2.645l7.29,0Z" style="fill:#fff;fill-rule:nonzero;"/><circle cx="6.767" cy="11.559" r="1.339" style="fill:#fff;"/><path d="M20,27.331c4.629,0 8.4,-3.772 8.4,-8.4c0,-4.629 -3.771,-8.4 -8.4,-8.4c-4.629,0 -8.4,3.763 -8.4,8.4c0,4.636 3.771,8.4 8.4,8.4Zm0,-14.8c3.527,0 6.4,2.873 6.4,6.4c0,3.526 -2.873,6.4 -6.4,6.4c-3.527,0 -6.4,-2.874 -6.4,-6.4c0,-3.527 2.873,-6.4 6.4,-6.4Z" style="fill:#fff;fill-rule:nonzero;"/></g></svg>