<?xml version="1.0" encoding="UTF-8" standalone="no"?><!DOCTYPE svg PUBLIC "-//W3C//DTD SVG 1.1//EN" "http://www.w3.org/Graphics/SVG/1.1/DTD/svg11.dtd"><svg width="100%" height="100%" viewBox="0 0 31 32" version="1.1" xmlns="http://www.w3.org/2000/svg" xmlns:xlink="http://www.w3.org/1999/xlink" xml:space="preserve" xmlns:serif="http://www.serif.com/" style="fill-rule:evenodd;clip-rule:evenodd;stroke-linejoin:round;stroke-miterlimit:2;"><path d="M30.393,29.116l-7.608,-7.913c1.956,-2.325 3.028,-5.251 3.028,-8.297c0,-7.116 -5.79,-12.906 -12.907,-12.906c-7.116,0 -12.906,5.79 -12.906,12.906c0,7.117 5.79,12.907 12.906,12.907c2.672,0 5.218,-0.806 7.394,-2.336l7.666,7.973c0.321,0.333 0.752,0.516 1.213,0.516c0.437,0 0.852,-0.167 1.167,-0.47c0.669,-0.643 0.69,-1.711 0.047,-2.38Zm-17.487,-25.749c5.26,0 9.54,4.279 9.54,9.539c0,5.26 -4.28,9.54 -9.54,9.54c-5.26,0 -9.539,-4.28 -9.539,-9.54c0,-5.26 4.279,-9.539 9.539,-9.539Z" style="fill-rule:nonzero;"/></svg>