<?xml version="1.0" encoding="UTF-8" standalone="no"?><!DOCTYPE svg PUBLIC "-//W3C//DTD SVG 1.1//EN" "http://www.w3.org/Graphics/SVG/1.1/DTD/svg11.dtd"><svg width="100%" height="100%" viewBox="0 0 32 32" version="1.1" xmlns="http://www.w3.org/2000/svg" xmlns:xlink="http://www.w3.org/1999/xlink" xml:space="preserve" xmlns:serif="http://www.serif.com/" style="fill-rule:evenodd;clip-rule:evenodd;stroke-linejoin:round;stroke-miterlimit:2;"><path d="M30.723,9.763c-1.687,-3.934 -4.554,-6.794 -8.52,-8.486c-1.983,-0.845 -4.06,-1.277 -6.229,-1.277c-2.17,0 -4.231,0.428 -6.211,1.277c-3.934,1.687 -6.813,4.546 -8.503,8.486c-0.847,1.974 -1.26,4.041 -1.26,6.211c0,2.169 0.413,4.254 1.26,6.229c1.69,3.939 4.57,6.815 8.503,8.503c1.98,0.849 4.041,1.276 6.211,1.276c2.169,0 4.246,-0.431 6.228,-1.276c3.966,-1.692 6.833,-4.571 8.521,-8.503c0.849,-1.981 1.277,-4.06 1.277,-6.229c0,-2.17 -0.427,-4.231 -1.277,-6.211Zm-2.554,13.279c-1.256,2.154 -2.977,3.863 -5.144,5.127c-2.154,1.256 -4.514,1.889 -7.051,1.889c-1.907,0 -3.726,-0.367 -5.459,-1.12c-1.732,-0.752 -3.228,-1.741 -4.479,-2.991c-1.251,-1.252 -2.247,-2.762 -2.991,-4.497c-0.743,-1.729 -1.103,-3.569 -1.103,-5.476c0,-2.537 0.624,-4.885 1.873,-7.033c1.253,-2.156 2.974,-3.867 5.126,-5.127c2.151,-1.259 4.496,-1.89 7.033,-1.89c2.537,0 4.896,0.634 7.05,1.89c2.168,1.264 3.884,2.974 5.144,5.126c1.26,2.152 1.89,4.497 1.89,7.034c0,2.537 -0.626,4.901 -1.889,7.068Z" style="fill:#fff;fill-rule:nonzero;"/><path d="M16.989,15.834l0,-9.063c0,-0.543 -0.473,-0.98 -1.015,-0.98c-0.508,0 -0.963,0.437 -0.963,0.98l0,9.203c0,0.017 0.035,0.087 0.035,0.14c-0.035,0.315 0.053,0.577 0.263,0.787l5.231,5.231c0.351,0.35 0.998,0.35 1.348,0c0.402,-0.402 0.375,-0.986 0,-1.364l-4.899,-4.934Z" style="fill:#fff;fill-rule:nonzero;"/></svg>