<?xml version="1.0" encoding="UTF-8" standalone="no"?><!DOCTYPE svg PUBLIC "-//W3C//DTD SVG 1.1//EN" "http://www.w3.org/Graphics/SVG/1.1/DTD/svg11.dtd"><svg width="100%" height="100%" viewBox="0 0 40 33" version="1.1" xmlns="http://www.w3.org/2000/svg" xmlns:xlink="http://www.w3.org/1999/xlink" xml:space="preserve" xmlns:serif="http://www.serif.com/" style="fill-rule:evenodd;clip-rule:evenodd;stroke-linejoin:round;stroke-miterlimit:2;"><path d="M36.848,3.905c-0.599,-1.189 -2.049,-1.666 -3.238,-1.067c-0.461,0.233 -0.835,0.607 -1.067,1.067c-0.467,0.041 -0.904,0.246 -1.236,0.577c-0.78,0.777 -0.782,2.039 -0.005,2.819c0.374,0.376 0.883,0.587 1.413,0.587l3.961,0c1.101,0.028 2.016,-0.84 2.045,-1.941c0.028,-1.074 -0.8,-1.977 -1.873,-2.042Zm-0.176,2.553l-3.944,0c-0.304,0 -0.551,-0.246 -0.551,-0.551c0,-0.304 0.247,-0.551 0.551,-0.551l0,-0.013c0.06,-0.001 0.119,0.007 0.177,0.022c0.387,0.086 0.771,-0.158 0.858,-0.546c0.001,-0.005 0.002,-0.009 0.003,-0.014c0.112,-0.525 0.629,-0.86 1.155,-0.748c0.375,0.08 0.667,0.373 0.748,0.748l0,0.034c0.099,0.378 0.481,0.607 0.861,0.517c0.047,-0.007 0.095,-0.007 0.142,0c0.304,0 0.551,0.247 0.551,0.551c0,0.305 -0.247,0.551 -0.551,0.551Z" style="fill-rule:nonzero;"/><path d="M39.559,31.638c-0.028,-0.356 -0.31,-0.638 -0.666,-0.666l-11.254,0c0.006,-0.077 0.006,-0.155 0,-0.232l0,-3.289l8.232,0c0.399,-0.001 0.723,-0.326 0.722,-0.725c-0.001,-0.18 -0.068,-0.353 -0.188,-0.485l-5.399,-6.544l2.377,0c0.399,-0.003 0.72,-0.329 0.718,-0.729c-0.002,-0.176 -0.067,-0.345 -0.185,-0.477l-3.508,-4.24l1.778,0c0.399,-0.001 0.722,-0.325 0.722,-0.725c-0.001,-0.179 -0.068,-0.352 -0.189,-0.485l-3.771,-4.559l-3.793,-4.585c-0.253,-0.309 -0.709,-0.355 -1.018,-0.102c-0.037,0.031 -0.071,0.065 -0.101,0.102l-3.767,4.585l-3.81,4.585c-0.087,0.104 -0.142,0.231 -0.16,0.366l-0.8,-1.447l0.787,-1.429c0.192,-0.348 0.065,-0.786 -0.284,-0.977c-0.348,-0.192 -0.786,-0.065 -0.977,0.284l-0.353,0.641l-0.353,-0.641c-0.191,-0.349 -0.629,-0.476 -0.977,-0.284c-0.349,0.191 -0.476,0.629 -0.284,0.977l0.792,1.438l-5.248,9.497l-5.24,9.472l-2.583,0c-0.398,-0.031 -0.746,0.267 -0.777,0.665c-0.031,0.398 0.267,0.746 0.666,0.777c0.037,0.003 0.074,0.003 0.111,0l0.009,0.008l38.105,0c0.399,-0.03 0.696,-0.378 0.666,-0.776Zm-18.197,-22.235l3.238,-3.913l3.237,3.913l2.816,3.401l-1.774,0c-0.397,-0.002 -0.72,0.319 -0.722,0.716c-0.001,0.169 0.058,0.334 0.167,0.464l0.116,0.142l3.414,4.129l-2.381,0c-0.397,-0.002 -0.72,0.318 -0.722,0.715c-0.001,0.17 0.058,0.334 0.167,0.464l0.771,0.93l4.666,5.64l-11.107,0l-2.493,-4.512l-2.436,-4.421l2.445,-2.954l0.095,-0.116c0.268,-0.296 0.247,-0.753 -0.049,-1.022c-0.133,-0.12 -0.306,-0.187 -0.485,-0.188l-1.778,0l2.815,-3.388Zm-4.348,4.843l1.778,0l-1.223,1.481l-0.861,-1.545c0.096,0.044 0.201,0.066 0.306,0.064Zm-12.007,16.743l4.86,-8.804l4.056,-7.319l0.039,7.47l-4.159,2.527c-0.278,0.168 -0.409,0.502 -0.319,0.814l1.55,5.312l-6.027,0Zm6.006,-5.205l2.436,-1.481l-1.459,4.852l-0.977,-3.371Zm1.937,5.188l1.722,-5.747l1.722,5.747l-3.444,0Zm4.955,0l-2.51,-8.369l-0.038,-7.9l4.137,7.482l2.678,4.848l0.043,0.082l1.498,2.682l0.65,1.175l-6.458,0Zm8.085,0l-1.946,-3.521l2.153,0l0.013,3.289c0,0.123 -0.096,0.225 -0.22,0.232Z" style="fill-rule:nonzero;"/><path d="M9.592,2.002c-0.718,-1.676 -2.66,-2.453 -4.336,-1.734c-0.779,0.334 -1.401,0.955 -1.735,1.734c-1.471,0 -2.664,1.193 -2.664,2.665c0,1.472 1.193,2.665 2.664,2.665l0.018,0.005l6.027,0c1.473,0.007 2.673,-1.182 2.68,-2.655c0.007,-1.473 -1.181,-2.672 -2.654,-2.68Zm-0.03,3.888l-6.028,0c-0.675,-0.002 -1.221,-0.55 -1.22,-1.225c0.001,-0.324 0.13,-0.634 0.359,-0.863l0.005,0.004c0.229,-0.227 0.538,-0.354 0.861,-0.353l0.202,0l0.103,0.022c0.38,0.09 0.762,-0.14 0.861,-0.517l0,-0.039c0.209,-1.008 1.196,-1.656 2.204,-1.447c0.728,0.151 1.296,0.72 1.447,1.447c0.079,0.39 0.458,0.642 0.847,0.563c0.005,-0.001 0.01,-0.002 0.014,-0.003l0.039,0c0.1,-0.025 0.203,-0.036 0.306,-0.034c0.675,0 1.222,0.547 1.222,1.222c0,0.676 -0.547,1.223 -1.222,1.223Z" style="fill-rule:nonzero;"/></svg>