<?xml version="1.0" encoding="UTF-8" standalone="no"?><!DOCTYPE svg PUBLIC "-//W3C//DTD SVG 1.1//EN" "http://www.w3.org/Graphics/SVG/1.1/DTD/svg11.dtd"><svg width="100%" height="100%" viewBox="0 0 33 33" version="1.1" xmlns="http://www.w3.org/2000/svg" xmlns:xlink="http://www.w3.org/1999/xlink" xml:space="preserve" xmlns:serif="http://www.serif.com/" style="fill-rule:evenodd;clip-rule:evenodd;stroke-linejoin:round;stroke-miterlimit:2;"><path d="M4.027,5.033l0,-4.026c0,-0.557 0.45,-1.007 1.006,-1.007c0.557,0 1.007,0.45 1.007,1.007l0,4.026c0,0.557 -0.45,1.007 -1.007,1.007c-0.556,0 -1.006,-0.45 -1.006,-1.007Zm17.113,1.007c0.556,0 1.007,-0.45 1.007,-1.007l0,-4.026c0,-0.557 -0.451,-1.007 -1.007,-1.007c-0.557,0 -1.007,0.45 -1.007,1.007l0,4.026c0,0.557 0.45,1.007 1.007,1.007Zm11.073,18.12c0,4.447 -3.606,8.053 -8.053,8.053c-4.448,0 -8.054,-3.606 -8.054,-8.053c0,-4.448 3.606,-8.054 8.054,-8.054c4.447,0 8.053,3.606 8.053,8.054Zm-2.013,0c0,-3.331 -2.71,-6.04 -6.04,-6.04c-3.331,0 -6.04,2.709 -6.04,6.04c0,3.33 2.709,6.04 6.04,6.04c3.33,0 6.04,-2.71 6.04,-6.04Zm-22.147,-12.08l-4.026,0l0,4.026l4.026,0l0,-4.026Zm-4.026,10.066l4.026,0l0,-4.026l-4.026,0l0,4.026Zm6.039,-6.04l4.027,0l0,-4.026l-4.027,0l0,4.026Zm0,6.04l4.027,0l0,-4.026l-4.027,0l0,4.026Zm-8.053,1.813l0,-13.893l22.147,0l0,4.027l2.013,0l0,-7.852c0,-1.223 -0.975,-2.214 -2.18,-2.214l-0.84,0l0,1.006c0,1.109 -0.903,2.014 -2.013,2.014c-1.111,0 -2.013,-0.905 -2.013,-2.014l0,-1.006l-12.08,0l0,1.006c0,1.109 -0.903,2.014 -2.014,2.014c-1.11,0 -2.013,-0.905 -2.013,-2.014l0,-1.006l-0.839,0c-1.205,0 -2.181,0.991 -2.181,2.214l0,17.718c0,1.219 0.976,2.214 2.181,2.214l11.912,0l0,-2.013l-11.912,0c-0.091,0 -0.168,-0.095 -0.168,-0.201Zm18.12,-7.853l0,-4.026l-4.026,0l0,4.026l4.026,0Zm7.047,8.054l-3.02,0l0,-3.021c0,-0.556 -0.451,-1.006 -1.007,-1.006c-0.557,0 -1.006,0.45 -1.006,1.006l0,4.027c0,0.557 0.449,1.007 1.006,1.007l4.027,0c0.556,0 1.006,-0.45 1.006,-1.007c0,-0.556 -0.45,-1.006 -1.006,-1.006Z" style="fill-rule:nonzero;"/></svg>