<?xml version="1.0" encoding="UTF-8" standalone="no"?><!DOCTYPE svg PUBLIC "-//W3C//DTD SVG 1.1//EN" "http://www.w3.org/Graphics/SVG/1.1/DTD/svg11.dtd"><svg width="100%" height="100%" viewBox="0 0 35 33" version="1.1" xmlns="http://www.w3.org/2000/svg" xmlns:xlink="http://www.w3.org/1999/xlink" xml:space="preserve" xmlns:serif="http://www.serif.com/" style="fill-rule:evenodd;clip-rule:evenodd;stroke-linejoin:round;stroke-miterlimit:2;"><path d="M31.389,3.832l-1.547,0l0,-1.511c0,-1.289 -1.031,-2.321 -2.321,-2.321c-1.289,0 -2.321,1.032 -2.321,2.321l0,1.511l-15.4,0l0,-1.511c0,-1.289 -1.032,-2.321 -2.321,-2.321c-1.29,0 -2.321,1.032 -2.321,2.321l0,1.511l-1.547,0c-1.99,0 -3.611,1.621 -3.611,3.61l0,21c0,1.99 1.621,3.611 3.611,3.611l27.778,0c1.99,0 3.611,-1.621 3.611,-3.611l0,-21c0,-1.989 -1.621,-3.61 -3.611,-3.61Zm-4.973,-1.511c0,-0.626 0.479,-1.105 1.105,-1.105c0.626,0 1.105,0.479 1.105,1.105l0,4.237c0,0.626 -0.479,1.105 -1.105,1.105c-0.626,0 -1.105,-0.479 -1.105,-1.105l0,-4.237Zm-20.042,0c0,-0.626 0.479,-1.105 1.105,-1.105c0.626,0 1.105,0.479 1.105,1.105l0,4.237c0,0.626 -0.479,1.105 -1.105,1.105c-0.626,0 -1.105,-0.479 -1.105,-1.105l0,-4.237Zm25.015,28.516l-27.778,0c-1.327,0 -2.432,-1.069 -2.432,-2.432l0,-17.5l32.605,0l0,17.537c0.037,1.326 -1.068,2.395 -2.395,2.395Zm2.432,-21.111l-32.642,0l0,-2.247c0,-1.363 1.105,-2.432 2.432,-2.432l1.547,0l0,1.511c0,1.289 1.031,2.321 2.321,2.321c1.289,0 2.321,-1.032 2.321,-2.321l0,-1.511l15.4,0l0,1.511c0,1.289 1.032,2.321 2.321,2.321c1.29,0 2.321,-1.032 2.321,-2.321l0,-1.511l1.547,0c1.327,0 2.432,1.069 2.432,2.432l0,2.247Z" style="fill-rule:nonzero;"/><path d="M17.5,13.926c-3.537,0 -6.411,2.874 -6.411,6.411c0,3.537 2.874,6.41 6.411,6.41c3.537,0 6.411,-2.873 6.411,-6.41c0,-3.537 -2.874,-6.411 -6.411,-6.411Zm0,11.606c-2.874,0 -5.195,-2.321 -5.195,-5.195c0,-2.874 2.321,-5.195 5.195,-5.195c2.874,0 5.195,2.321 5.195,5.195c0,2.874 -2.321,5.195 -5.195,5.195Z" style="fill-rule:nonzero;"/><path d="M21.258,18.384c-0.221,-0.331 -0.626,-0.405 -0.884,-0.184l-4.311,3.353l-1.363,-2.211c-0.184,-0.295 -0.553,-0.368 -0.847,-0.184c-0.295,0.184 -0.369,0.553 -0.185,0.847l1.732,2.8c0.074,0.148 0.221,0.258 0.405,0.295l0.111,0c0.147,0 0.258,-0.037 0.368,-0.111l4.863,-3.757c0.258,-0.221 0.295,-0.59 0.111,-0.848Z" style="fill-rule:nonzero;"/></svg>