<?xml version="1.0" encoding="UTF-8" standalone="no"?><!DOCTYPE svg PUBLIC "-//W3C//DTD SVG 1.1//EN" "http://www.w3.org/Graphics/SVG/1.1/DTD/svg11.dtd"><svg width="100%" height="100%" viewBox="0 0 33 33" version="1.1" xmlns="http://www.w3.org/2000/svg" xmlns:xlink="http://www.w3.org/1999/xlink" xml:space="preserve" xmlns:serif="http://www.serif.com/" style="fill-rule:evenodd;clip-rule:evenodd;stroke-linejoin:round;stroke-miterlimit:2;"><g><path d="M23.214,0l-14.366,0c-4.879,0 -8.848,3.969 -8.848,8.848l0,14.366c0,4.879 3.969,8.848 8.848,8.848l14.366,0c4.879,0 8.848,-3.969 8.848,-8.848l0,-14.366c0,-4.879 -3.969,-8.848 -8.848,-8.848Zm6.003,23.214c0,3.31 -2.693,6.003 -6.003,6.003l-14.366,0c-3.31,0 -6.003,-2.693 -6.003,-6.003l0,-14.366c0,-3.31 2.693,-6.003 6.003,-6.003l14.366,0c3.31,0 6.003,2.693 6.003,6.003l0,14.366l0,0Z" style="fill:#fff;fill-rule:nonzero;"/><path d="M16.031,7.77c-4.555,0 -8.262,3.706 -8.262,8.261c0,4.556 3.707,8.262 8.262,8.262c4.555,0 8.262,-3.706 8.262,-8.262c0,-4.555 -3.707,-8.261 -8.262,-8.261Zm0,13.678c-2.987,0 -5.417,-2.43 -5.417,-5.417c0,-2.987 2.43,-5.417 5.417,-5.417c2.987,0 5.417,2.43 5.417,5.417c0,2.987 -2.43,5.417 -5.417,5.417Z" style="fill:#fff;fill-rule:nonzero;"/><path d="M24.639,5.358c-0.548,0 -1.086,0.222 -1.474,0.61c-0.388,0.387 -0.612,0.926 -0.612,1.476c0,0.548 0.224,1.086 0.612,1.475c0.387,0.387 0.926,0.611 1.474,0.611c0.55,0 1.087,-0.224 1.475,-0.611c0.389,-0.389 0.611,-0.927 0.611,-1.475c0,-0.55 -0.222,-1.089 -0.611,-1.476c-0.386,-0.388 -0.925,-0.61 -1.475,-0.61Z" style="fill:#fff;fill-rule:nonzero;"/></g></svg>