<?xml version="1.0" encoding="UTF-8" standalone="no"?><!DOCTYPE svg PUBLIC "-//W3C//DTD SVG 1.1//EN" "http://www.w3.org/Graphics/SVG/1.1/DTD/svg11.dtd"><svg width="100%" height="100%" viewBox="0 0 16 33" version="1.1" xmlns="http://www.w3.org/2000/svg" xmlns:xlink="http://www.w3.org/1999/xlink" xml:space="preserve" xmlns:serif="http://www.serif.com/" style="fill-rule:evenodd;clip-rule:evenodd;stroke-linejoin:round;stroke-miterlimit:2;"><path d="M10.081,10.653l0,-2.802c0,-0.42 0.02,-0.746 0.059,-0.976c0.039,-0.23 0.128,-0.457 0.267,-0.681c0.138,-0.223 0.362,-0.378 0.67,-0.463c0.31,-0.086 0.721,-0.129 1.234,-0.129l2.801,0l0,-5.602l-4.478,0c-2.591,0 -4.452,0.615 -5.583,1.844c-1.131,1.23 -1.697,3.042 -1.697,5.435l0,3.374l-3.354,0l0,5.602l3.354,0l0,16.256l6.727,0l0,-16.255l4.478,0l0.592,-5.603l-5.07,0Z" style="fill:#fff;fill-rule:nonzero;"/></svg>