<?xml version="1.0" encoding="UTF-8" standalone="no"?><!DOCTYPE svg PUBLIC "-//W3C//DTD SVG 1.1//EN" "http://www.w3.org/Graphics/SVG/1.1/DTD/svg11.dtd"><svg width="100%" height="100%" viewBox="0 0 35 33" version="1.1" xmlns="http://www.w3.org/2000/svg" xmlns:xlink="http://www.w3.org/1999/xlink" xml:space="preserve" xmlns:serif="http://www.serif.com/" style="fill-rule:evenodd;clip-rule:evenodd;stroke-linejoin:round;stroke-miterlimit:2;"><path d="M28.995,13.743c-0.262,-0.106 -0.561,0.02 -0.668,0.282c-0.287,0.709 -0.967,1.167 -1.733,1.167c-0.5,0 -0.97,-0.195 -1.324,-0.548c-0.178,-0.179 -0.316,-0.386 -0.41,-0.618c-0.106,-0.262 -0.405,-0.389 -0.667,-0.283c-0.263,0.106 -0.39,0.404 -0.284,0.667c0.146,0.36 0.359,0.682 0.636,0.959c0.548,0.547 1.276,0.848 2.049,0.848c1.185,0 2.239,-0.709 2.684,-1.806c0.106,-0.263 -0.02,-0.562 -0.283,-0.668Z" style="fill-rule:nonzero;"/><path d="M23.647,10.23c-0.283,0 -0.513,0.23 -0.513,0.513l0,0.284c0,0.283 0.23,0.513 0.513,0.513c0.283,0 0.513,-0.23 0.513,-0.513l0,-0.284c0,-0.283 -0.23,-0.513 -0.513,-0.513Z" style="fill-rule:nonzero;"/><path d="M29.54,10.23c-0.283,0 -0.512,0.23 -0.512,0.513l0,0.284c0,0.283 0.229,0.513 0.512,0.513c0.283,0 0.513,-0.23 0.513,-0.513l0,-0.284c0,-0.283 -0.23,-0.513 -0.513,-0.513Z" style="fill-rule:nonzero;"/><path d="M11.413,13.743c-0.263,-0.107 -0.561,0.02 -0.668,0.282c-0.287,0.709 -0.968,1.167 -1.734,1.167c-0.499,0 -0.969,-0.195 -1.323,-0.548c-0.179,-0.179 -0.317,-0.387 -0.41,-0.618c-0.106,-0.262 -0.405,-0.389 -0.667,-0.283c-0.263,0.106 -0.39,0.404 -0.284,0.667c0.145,0.36 0.359,0.682 0.636,0.959c0.548,0.547 1.275,0.848 2.048,0.848c1.186,0 2.239,-0.709 2.684,-1.806c0.107,-0.263 -0.02,-0.562 -0.282,-0.668Z" style="fill-rule:nonzero;"/><path d="M6.065,10.23c-0.284,0 -0.513,0.23 -0.513,0.513l0,0.284c0,0.283 0.229,0.513 0.513,0.513c0.283,0 0.512,-0.23 0.512,-0.513l0,-0.284c0,-0.283 -0.229,-0.513 -0.512,-0.513Z" style="fill-rule:nonzero;"/><path d="M11.958,10.23c-0.283,0 -0.513,0.23 -0.513,0.513l0,0.284c0,0.283 0.23,0.513 0.513,0.513c0.283,0 0.513,-0.23 0.513,-0.513l0,-0.284c0,-0.283 -0.23,-0.513 -0.513,-0.513Z" style="fill-rule:nonzero;"/><path d="M34.487,7.377c0.284,0 0.513,-0.23 0.513,-0.513l0,-1.423c0,-2.02 -1.644,-3.664 -3.665,-3.664l-0.689,0l-0.084,-0.194c-0.416,-0.962 -1.362,-1.583 -2.41,-1.583l-3.401,0c-3.619,0 -6.564,2.945 -6.564,6.564l0,10.468c0,1.518 1.235,2.753 2.752,2.753l2.933,0l0,0.723l-11.071,0l-1.068,0l0,-0.978c0.615,-0.29 1.186,-0.678 1.691,-1.158c1.071,-1.021 1.747,-2.36 1.933,-3.813c1.04,-0.001 1.886,-0.848 1.886,-1.888l0,-0.65c0,-0.461 -0.166,-0.883 -0.441,-1.21l1.18,-4.67c0.069,-0.275 -0.097,-0.554 -0.371,-0.623c-0.275,-0.069 -0.554,0.097 -0.623,0.371l-1.092,4.323c-0.155,-0.046 -0.317,-0.073 -0.486,-0.078l0,-1.73c0,-0.163 -0.077,-0.316 -0.208,-0.413c-0.13,-0.096 -0.299,-0.125 -0.455,-0.078c-2.809,0.862 -5.272,0.817 -7.121,-0.132c-1.385,-0.71 -1.959,-1.69 -1.964,-1.697c-0.114,-0.204 -0.351,-0.304 -0.576,-0.245c-0.226,0.059 -0.383,0.263 -0.383,0.496c0,1.27 -0.272,1.545 -1.612,1.635c-0.269,0.019 -0.478,0.242 -0.478,0.512l0,1.652c-0.187,0.005 -0.367,0.038 -0.537,0.094c-0.221,-0.839 -0.362,-1.461 -0.402,-1.784c-0.08,-0.641 -0.024,-2.554 0.004,-3.237c0,-0.007 0,-0.014 0,-0.021c0,-0.84 0.683,-1.523 1.523,-1.523l0.777,0c0.136,0 0.266,-0.054 0.362,-0.15l1.834,-1.834c0.372,-0.371 0.919,-0.526 1.43,-0.404l6.449,1.534c0.34,0.081 0.689,0.122 1.039,0.122c1.011,0 2.004,-0.347 2.796,-0.977c0.012,-0.011 0.028,-0.023 0.059,-0.003c0.031,0.02 0.026,0.039 0.022,0.055l-0.388,1.537c-0.069,0.274 0.097,0.553 0.372,0.622c0.274,0.07 0.553,-0.097 0.622,-0.371l0.389,-1.537c0.114,-0.455 -0.066,-0.914 -0.461,-1.168c-0.395,-0.255 -0.887,-0.23 -1.254,0.063c-0.611,0.486 -1.377,0.753 -2.157,0.753c-0.27,0 -0.54,-0.031 -0.802,-0.094l-6.448,-1.534c-0.855,-0.204 -1.771,0.056 -2.393,0.677l-1.683,1.684l-0.565,0c-1.402,0 -2.542,1.137 -2.548,2.537c-0.008,0.199 -0.101,2.558 0.004,3.395c0.052,0.425 0.229,1.194 0.526,2.287c-0.252,0.321 -0.403,0.725 -0.403,1.164l0,0.65c0,1.04 0.846,1.887 1.885,1.888c0.283,2.216 1.692,4.062 3.625,4.971l0,0.978l-1.068,0c-0.313,0 -0.622,0.035 -0.923,0.103c-0.25,-0.438 -0.721,-0.734 -1.26,-0.734l-1.248,0c-0.988,0 -1.791,0.804 -1.791,1.791l0,2.789c0,0.721 0.428,1.343 1.043,1.627l0,5.465c0,0.283 0.23,0.513 0.513,0.513l14.911,0c0.283,0 0.513,-0.23 0.513,-0.513l0,-6.862c0,-1.258 -0.56,-2.386 -1.442,-3.153l8.334,0l0,0.256c0,1.478 2.219,2.758 2.472,2.899c0.078,0.043 0.164,0.065 0.25,0.065c0.086,0 0.172,-0.022 0.249,-0.065c0.253,-0.141 2.472,-1.421 2.472,-2.899l0,-0.256l1.068,0c1.739,0 3.153,1.415 3.153,3.153l0,6.35l-1.437,0l0,-3.436c0,-0.283 -0.229,-0.512 -0.512,-0.512c-0.284,0 -0.513,0.229 -0.513,0.512l0,3.436l-8.96,0l0,-5.897c0,-0.283 -0.23,-0.513 -0.513,-0.513l-3.076,0c-0.283,0 -0.512,0.23 -0.512,0.513c0,0.283 0.229,0.513 0.512,0.513l2.563,0l0,5.896c0,0.283 0.23,0.513 0.513,0.513l12.448,0c0.283,0 0.513,-0.23 0.513,-0.513l0,-6.862c0,-2.304 -1.875,-4.179 -4.179,-4.179l-1.068,0l0,-0.723l2.934,0c1.517,0 2.751,-1.235 2.751,-2.753l0,-7.747c0,-0.284 -0.229,-0.513 -0.513,-0.513c-0.283,0 -0.512,0.229 -0.512,0.513l0,1.16c-0.284,-0.187 -0.621,-0.301 -0.983,-0.311l0,-2.472c0,-1.178 -0.354,-2.311 -1.025,-3.275c-0.082,-0.117 -0.209,-0.195 -0.351,-0.215c-0.141,-0.02 -0.285,0.021 -0.395,0.111c-2.252,1.848 -5.099,2.865 -8.016,2.865c-0.808,0 -1.614,-0.076 -2.395,-0.227c-0.146,-0.028 -0.297,0.009 -0.413,0.1c-0.117,0.092 -0.189,0.229 -0.196,0.378c-0.004,0.083 -0.007,0.169 -0.007,0.263l0,2.472c-0.362,0.01 -0.698,0.124 -0.982,0.311l0,-3.881c0,-3.054 2.485,-5.539 5.539,-5.539l3.401,0c0.639,0 1.216,0.379 1.469,0.965l0.218,0.503c0.081,0.188 0.266,0.309 0.47,0.309l1.026,0c1.456,0 2.64,1.184 2.64,2.639l0,1.423c0,0.283 0.229,0.513 0.512,0.513Zm-30.841,6.643c-0.015,-0.273 -0.24,-0.487 -0.512,-0.487l-0.467,0c-0.475,0 -0.861,-0.386 -0.861,-0.862l0,-0.65c0,-0.476 0.386,-0.862 0.861,-0.862l0.459,0c0.283,0 0.512,-0.23 0.512,-0.513l0,-1.702c1.069,-0.152 1.67,-0.568 1.931,-1.38c0.366,0.353 0.866,0.749 1.523,1.095c2.394,1.26 5.181,0.978 7.293,0.424l0,1.563c0,0.283 0.229,0.513 0.513,0.513l0.457,0c0.476,0 0.862,0.386 0.862,0.862l0,0.65c0,0.476 -0.386,0.862 -0.862,0.862l-0.466,0c-0.273,0 -0.498,0.214 -0.512,0.486c-0.072,1.376 -0.661,2.658 -1.661,3.61c-0.496,0.474 -1.07,0.841 -1.691,1.092c-0.004,0.002 -0.007,0.003 -0.01,0.004c-0.63,0.253 -1.308,0.386 -2.003,0.386c-0.707,0 -1.384,-0.137 -2.003,-0.385c-0.01,-0.005 -0.02,-0.008 -0.03,-0.012c-1.873,-0.765 -3.223,-2.556 -3.333,-4.694Zm7.061,5.888l0,1.882c0,0.453 -0.176,0.879 -0.496,1.199c-0.321,0.32 -0.747,0.496 -1.2,0.496c-0.935,0 -1.696,-0.76 -1.696,-1.696l0,-0.768l0,-1.113c0.541,0.149 1.11,0.229 1.697,0.229c0.579,0 1.148,-0.079 1.695,-0.229Zm-9.682,4.549l0,-2.789c0,-0.422 0.344,-0.765 0.766,-0.765l1.248,0c0.235,0 0.426,0.191 0.426,0.426l0,3.467c0,0.235 -0.191,0.427 -0.426,0.427l-1.248,0c-0.422,0 -0.766,-0.344 -0.766,-0.766Zm14.929,0.23l0,6.35l-1.437,0l0,-3.436c0,-0.283 -0.229,-0.512 -0.513,-0.512c-0.283,0 -0.512,0.229 -0.512,0.512l0,3.436l-8.961,0l0,-3.436c0,-0.283 -0.23,-0.512 -0.513,-0.512c-0.283,0 -0.512,0.229 -0.512,0.512l0,3.436l-1.437,0l0,-4.789l0.97,0c0.801,0 1.452,-0.651 1.452,-1.452l0,-3.176c0.238,-0.057 0.482,-0.086 0.731,-0.086l1.068,0l0,0.256c0,1.5 1.221,2.721 2.721,2.721c0.727,0 1.411,-0.283 1.925,-0.797c0.514,-0.514 0.796,-1.197 0.796,-1.924l0,-0.256l1.069,0c1.739,0 3.153,1.415 3.153,3.153Zm12.336,-2.897c0,0.568 -0.923,1.371 -1.696,1.855c-0.774,-0.484 -1.697,-1.287 -1.697,-1.855l0,-1.882c0.541,0.149 1.11,0.229 1.696,0.229c0.581,0 1.15,-0.079 1.697,-0.229l0,1.882Zm5.685,-7.543l0,2.785c0,0.953 -0.775,1.727 -1.726,1.727l-1.689,0c0.154,-0.122 0.303,-0.251 0.446,-0.387c1.072,-1.022 1.748,-2.361 1.934,-3.813c0.382,-0.001 0.737,-0.116 1.035,-0.312Zm-13.725,-3.088l0.457,0c0.283,0 0.513,-0.23 0.513,-0.513l0,-2.616c0.653,0.096 1.319,0.144 1.985,0.144c2.958,0 5.849,-0.968 8.205,-2.736c0.366,0.681 0.557,1.44 0.557,2.224l0,2.984c0,0.283 0.229,0.513 0.512,0.513l0.459,0c0.475,0 0.861,0.386 0.861,0.862l0,0.65c0,0.476 -0.386,0.862 -0.861,0.862l-0.467,0c-0.273,0 -0.498,0.214 -0.512,0.486c-0.071,1.376 -0.661,2.658 -1.66,3.61c-0.495,0.471 -1.065,0.838 -1.683,1.089c-0.009,0.003 -0.018,0.007 -0.027,0.011c-0.627,0.251 -1.303,0.382 -1.996,0.382c-0.707,0 -1.382,-0.137 -2.002,-0.385c-0.01,-0.005 -0.02,-0.008 -0.03,-0.012c-1.873,-0.765 -3.222,-2.556 -3.333,-4.694c-0.014,-0.273 -0.239,-0.487 -0.512,-0.487l-0.466,0c-0.476,0 -0.862,-0.386 -0.862,-0.862l0,-0.65l-0.001,0c0,-0.476 0.387,-0.862 0.863,-0.862Zm-0.002,3.4c0.217,1.705 1.102,3.191 2.379,4.2l-1.688,0c-0.952,0 -1.727,-0.774 -1.727,-1.727l0,-2.785c0.298,0.196 0.653,0.311 1.036,0.312Z" style="fill-rule:nonzero;"/></svg>