<?xml version="1.0" encoding="UTF-8" standalone="no"?><!DOCTYPE svg PUBLIC "-//W3C//DTD SVG 1.1//EN" "http://www.w3.org/Graphics/SVG/1.1/DTD/svg11.dtd"><svg width="100%" height="100%" viewBox="0 0 26 32" version="1.1" xmlns="http://www.w3.org/2000/svg" xmlns:xlink="http://www.w3.org/1999/xlink" xml:space="preserve" xmlns:serif="http://www.serif.com/" style="fill-rule:evenodd;clip-rule:evenodd;stroke-linejoin:round;stroke-miterlimit:2;"><g><path d="M19.2,11.733l-13.333,0c-0.295,0 -0.534,0.239 -0.534,0.534c0,0.295 0.239,0.533 0.534,0.533l13.333,0c0.294,0 0.533,-0.238 0.533,-0.533c0,-0.295 -0.239,-0.534 -0.533,-0.534Z" style="fill-rule:nonzero;"/><path d="M5.867,8.533l5.333,0c0.294,0 0.533,-0.238 0.533,-0.533c0,-0.295 -0.239,-0.533 -0.533,-0.533l-5.333,0c-0.295,0 -0.534,0.238 -0.534,0.533c0,0.295 0.239,0.533 0.534,0.533Z" style="fill-rule:nonzero;"/><path d="M19.2,16l-13.333,0c-0.295,0 -0.534,0.238 -0.534,0.533c0,0.295 0.239,0.534 0.534,0.534l13.333,0c0.294,0 0.533,-0.239 0.533,-0.534c0,-0.295 -0.239,-0.533 -0.533,-0.533Z" style="fill-rule:nonzero;"/><path d="M19.2,20.267l-13.333,0c-0.295,0 -0.534,0.238 -0.534,0.533c0,0.295 0.239,0.533 0.534,0.533l13.333,0c0.294,0 0.533,-0.238 0.533,-0.533c0,-0.295 -0.239,-0.533 -0.533,-0.533Z" style="fill-rule:nonzero;"/><path d="M19.2,24.533l-13.333,0c-0.295,0 -0.534,0.239 -0.534,0.534c0,0.295 0.239,0.533 0.534,0.533l13.333,0c0.294,0 0.533,-0.238 0.533,-0.533c0,-0.295 -0.239,-0.534 -0.533,-0.534Z" style="fill-rule:nonzero;"/><path d="M17.287,0l-17.287,0l0,32l25.067,0l0,-24.221l-7.78,-7.779Zm0.313,1.821l5.646,5.646l-5.646,0l0,-5.646Zm-16.533,29.112l0,-29.866l15.466,0l0,7.466l7.467,0l0,22.4l-22.933,0Z" style="fill-rule:nonzero;"/></g></svg>