<svg viewBox="0 0 64 65" xmlns="http://www.w3.org/2000/svg" fill-rule="evenodd" clip-rule="evenodd" stroke-linejoin="round" stroke-miterlimit="1.414"><path d="M63.386 47.807l.002.002a2.359 2.359 0 0 1 .405.688c.032.076.053.148.076.225.058.191.094.389.106.596.006.076.018.148.016.226 0 .04.01.076.008.115-.014.239-.062.47-.136.687-.006.023-.022.041-.03.064a2.441 2.441 0 0 1-.363.645c-.021.027-.028.063-.05.09L53.109 63.291c-.789.93-2.084.948-2.894.037-.808-.91-.823-2.402-.032-3.334l5.558-6.549c-8.121 1.076-16.104-.633-16.481-.717C14.614 48.261-2.827 25.501.38 1.992.539.828 1.408 0 2.399 0c.106 0 .212.009.32.027C3.835.23 4.597 1.436 4.423 2.723 1.566 23.663 17.479 44.005 39.96 48.081c.103.024 8.351 1.794 16.117.574L47.5 43.562c-1.005-.598-1.398-2.02-.881-3.177.516-1.159 1.748-1.608 2.756-1.017l13.52 8.028c.183.111.347.25.491.411z" fill="#434160" fill-rule="nonzero"/></svg>